<svg xmlns="http://www.w3.org/2000/svg" viewBox="0 0 64 64" role="img" aria-labelledby="title">
  <title id="title">Soccer ball</title>
  <circle cx="32" cy="32" r="29" fill="#fff" stroke="#111" stroke-width="3"/>
  <path d="m32 17 10 7-4 12H26l-4-12 10-7Z" fill="#111"/>
  <path d="m32 17-3-11M22 24 11 20M26 36l-8 11M38 36l8 11M42 24l11-4M18 47l-8 1M46 47l8 1" fill="none" stroke="#111" stroke-width="3" stroke-linecap="round"/>
  <path d="m29 6-9 6-9 8-2 12 1 16 9 9M35 6l9 6 9 8 2 12-1 16-9 9" fill="none" stroke="#111" stroke-width="2" stroke-linejoin="round"/>
</svg>
